<svg xmlns="http://www.w3.org/2000/svg" xmlns:xlink="http://www.w3.org/1999/xlink" version="1.1" id="Layer_7" x="0px" y="0px" viewBox="0 0 100 100" enable-background="new 0 0 100 100" xml:space="preserve" height="100px" width="100px">
<path d="M60.874,37.372l6.515-28.06c0.213-0.925,0.056-1.879-0.463-2.684c-0.509-0.805-1.305-1.36-2.24-1.555  C64.446,5.028,64.196,5,63.956,5c-1.694,0-3.147,1.212-3.452,2.869L55.109,36.66c-1.666-0.13-3.369-0.194-5.109-0.194  c-18.925,0-34.168,7.802-34.695,17.833l0.009,0.13c0.009,0.5,0.028,0.99,0.056,1.481c0.703,13.817,6.802,24.691,16.362,30.632  C31.861,90.984,40.505,95,50,95s18.139-4.016,18.268-8.459c4.775-2.971,8.699-7.172,11.503-12.364  c2.804-5.183,4.507-11.365,4.859-18.268c0.028-0.491,0.046-0.981,0.065-1.481v-0.213C84.269,46.266,74.46,39.686,60.874,37.372z   M55.617,39.029l0.167-0.907l0.083-0.463l0.176-0.916l5.368-28.698c0.259-1.407,1.666-2.36,3.082-2.064  c0.694,0.148,1.277,0.546,1.657,1.138c0.379,0.602,0.5,1.305,0.342,1.99l-6.524,28.115l-0.213,0.916l-0.102,0.453l-0.213,0.898  l-1.481,6.395l-0.213,0.916c0.305,0.12,0.583,0.25,0.851,0.407c0.777,0.444,1.379,1.009,1.832,1.703  c0.574,0.879,0.888,1.999,0.935,3.341c-2.786,1.314-5.072,3.6-6.349,6.543c-0.379,0.879-0.639,1.731-0.777,2.563  c-1.351-0.453-2.804-0.703-4.303-0.703c-0.231-2.434-1.111-4.683-2.471-6.561c0-0.009,0-0.009,0-0.009  c0.056-0.352,0.12-0.694,0.194-1.046c0.916-4.331,2.776-6.598,5.682-6.922c0.241-0.037,0.491-0.046,0.75-0.046h0.204l0.176-0.916  L55.617,39.029z M23.273,63.507c-3.332-2.517-5.275-5.525-5.275-8.764c0-8.801,14.354-15.964,32.002-15.964  c1.592,0,3.156,0.056,4.683,0.176l-1.166,6.21c-3.498,0.259-5.738,2.841-6.756,7.69c-0.019,0.093-0.037,0.185-0.056,0.278  c-2.452-2.841-6.08-4.637-10.124-4.637c-7.404,0-13.419,6.015-13.419,13.419C23.162,62.47,23.208,62.998,23.273,63.507z   M45.132,68.162l0.194-0.139c0.296-0.222,0.592-0.435,0.898-0.648c0.925-0.648,1.832-1.277,2.517-2.073  c0.213-0.241,0.407-0.5,0.565-0.768C49.741,63.822,50,62.979,50,61.915c0-0.111-0.009-0.222-0.009-0.333h-0.009  c0-0.093-0.009-0.185-0.009-0.278c0,0.093,0.009,0.185,0.019,0.278c1.453,0.009,2.841,0.268,4.146,0.722  c-0.065,1.222,0.13,2.378,0.611,3.489c0.111,0.278,0.25,0.546,0.407,0.814c0.703,1.268,1.777,2.452,3.221,3.535  c-2.675,0.361-5.479,0.565-8.375,0.565c-2.73,0-5.386-0.176-7.913-0.491C43.161,69.624,44.142,68.902,45.132,68.162z M55.932,66.163  c-0.148-0.268-0.278-0.546-0.389-0.824c-0.759-1.869-0.657-3.933,0.315-6.173c1.129-2.582,3.1-4.637,5.506-5.877  c0.305-0.157,0.62-0.305,0.935-0.435c1.434-0.592,2.989-0.916,4.6-0.916c1.647,0,3.267,0.333,4.794,1  c3.794,1.657,6.302,5.044,7.015,8.838c-3.822,3.859-10.67,6.848-19.018,8.181C57.95,68.801,56.7,67.533,55.932,66.163z   M72.063,52.096c-1.647-0.722-3.387-1.083-5.164-1.083c-1.61,0-3.174,0.296-4.627,0.851c-0.102-1.36-0.453-2.508-1.064-3.452  c-0.583-0.898-1.37-1.61-2.397-2.129l1.545-6.645c12.577,2.147,21.646,8.107,21.646,15.103c0,2.203-0.907,4.313-2.536,6.219  C78.55,57.149,75.931,53.78,72.063,52.096z M83.77,54.391c-0.019,0.49-0.037,0.981-0.065,1.471  C82.659,76.639,69.111,90.604,50,90.604S17.341,76.639,16.295,55.853c-0.028-0.481-0.046-0.972-0.065-1.462v-0.12  c0.49-9.31,15.64-16.88,33.77-16.88c1.675,0,3.322,0.065,4.942,0.185l-0.093,0.463c-1.582-0.12-3.202-0.185-4.849-0.185  c-18.157,0-32.928,7.579-32.928,16.889S31.843,71.632,50,71.632s32.928-7.579,32.928-16.889c0-7.413-9.375-13.734-22.368-15.992  l0.102-0.453c13.058,2.267,22.72,8.57,23.108,15.964V54.391z"/>
</svg>