<svg xmlns="http://www.w3.org/2000/svg" xmlns:xlink="http://www.w3.org/1999/xlink" version="1.1" id="Layer_1" x="0px" y="0px" width="100px" height="100px" viewBox="0 0 100 100" enable-background="new 0 0 100 100" xml:space="preserve">
<path d="M49.492,82.773l-1.243-1.647c-1.051-1.392-25.733-34.265-25.733-48.659c0-14.875,12.102-26.978,26.977-26.978  s26.977,12.102,26.977,26.978c0,14.394-24.684,47.267-25.732,48.659L49.492,82.773z M49.492,8.604  c-13.157,0-23.862,10.705-23.862,23.863c0,11.62,18.796,38.158,23.862,45.098c5.066-6.941,23.861-33.482,23.861-45.098  C73.354,19.309,62.649,8.604,49.492,8.604z M49.492,44.209c-6.475,0-11.743-5.267-11.743-11.742c0-6.475,5.269-11.743,11.743-11.743  s11.741,5.268,11.741,11.743C61.233,38.942,55.967,44.209,49.492,44.209z M49.492,23.839c-4.757,0-8.628,3.871-8.628,8.628  c0,4.757,3.871,8.627,8.628,8.627c4.757,0,8.626-3.87,8.626-8.627C58.118,27.709,54.249,23.839,49.492,23.839z"/>
<path d="M50.463,91.271c-12.391,0-21.687-3.976-22.101-9.452c-0.388-5.125,6.694-7.268,10.95-8.088l1.938,2.592  c-7.503,0.743-9.98,4.238-9.908,5.21c0.173,2.287,6.581,7.051,18.992,7.051c11.83,0,17.157-4.646,17.31-6.771  c0.112-1.549-4.01-5.231-9.893-5.53l1.981-2.598c10.242,1.887,11.03,6.504,10.893,8.4C70.234,87.493,61.944,91.271,50.463,91.271z"/>
</svg>