<svg xmlns="http://www.w3.org/2000/svg" xmlns:xlink="http://www.w3.org/1999/xlink" version="1.1" id="Layer_1" x="0px" y="0px" width="100px" height="100px" viewBox="0 0 100 100" enable-background="new 0 0 100 100" xml:space="preserve">
<path d="M95.725,45.971L79.861,39.93c-0.85-1.619-7.545-14.387-8.336-15.93c-0.996-1.942-2.885-1.767-2.914-1.761H12.182  c-3.394,0-4.594,3.696-4.754,5.649L4.23,64.773h12.407c-0.013,0.173-0.026,0.346-0.026,0.522c0,3.845,3.126,6.972,6.969,6.972  c3.843,0,6.969-3.127,6.969-6.972c0-0.177-0.014-0.35-0.026-0.522h43.631c-0.013,0.173-0.026,0.346-0.026,0.522  c0,3.845,3.126,6.972,6.969,6.972c3.844,0,6.971-3.127,6.971-6.972c0-1.569-0.527-3.014-1.406-4.18h9.064V45.971z M23.58,71.268  c-3.291,0-5.969-2.68-5.969-5.972c0-3.291,2.678-5.968,5.969-5.968s5.969,2.677,5.969,5.968  C29.549,68.588,26.871,71.268,23.58,71.268z M81.096,71.268c-3.291,0-5.969-2.68-5.969-5.972c0-3.291,2.678-5.968,5.969-5.968  c3.293,0,5.971,2.677,5.971,5.968C87.066,68.588,84.389,71.268,81.096,71.268z M94.725,60.116h-8.982  c-1.235-1.107-2.86-1.788-4.646-1.788c-3.319,0-6.099,2.334-6.796,5.445h-1.422c0.703-3.963,4.129-6.879,8.222-6.879v-1  c-4.644,0-8.517,3.353-9.231,7.879H30.376c-0.697-3.111-3.477-5.445-6.796-5.445c-3.32,0-6.1,2.334-6.796,5.445h-1.425  c0.703-3.963,4.128-6.879,8.222-6.879v-1c-4.644,0-8.517,3.353-9.232,7.879H5.321l3.103-35.8c0.004-0.047,0.426-4.733,3.757-4.733  l56.482-0.003c0.011-0.001,1.286-0.116,1.971,1.22c0.845,1.644,8.353,15.961,8.429,16.106l0.088,0.167l15.574,5.93V60.116z"/>
<path d="M69.271,26.835c-0.791-1.549-2.287-1.436-2.369-1.424h-2.418c-0.133,0-0.26,0.053-0.354,0.147  c-0.094,0.094-0.146,0.221-0.146,0.354l0.031,13.605c0.002,0.276,0.226,0.499,0.5,0.499h10.828c0.176,0,0.338-0.091,0.428-0.241  c0.092-0.15,0.098-0.336,0.016-0.491C75.787,39.284,69.932,28.118,69.271,26.835z M65.016,39.016L64.984,26.41h1.934  c0.021,0,0.08-0.002,0.102-0.004c0.273,0,0.955,0.086,1.362,0.884c0.558,1.085,4.822,9.221,6.136,11.726H65.016z"/>
<path d="M62.297,25.406h-8.781c-0.275,0-0.5,0.224-0.5,0.5v13.61c0,0.276,0.225,0.5,0.5,0.5h8.781c0.276,0,0.5-0.224,0.5-0.501  V25.906C62.797,25.63,62.573,25.406,62.297,25.406z M61.797,39.016h-7.781v-12.61h7.781V39.016z"/>
<path d="M23.58,61.438c-2.128,0-3.859,1.731-3.859,3.859s1.731,3.859,3.859,3.859s3.859-1.731,3.859-3.859  S25.708,61.438,23.58,61.438z M23.58,68.156c-1.576,0-2.859-1.282-2.859-2.859c0-1.576,1.282-2.859,2.859-2.859  s2.859,1.283,2.859,2.859C26.439,66.874,25.156,68.156,23.58,68.156z"/>
<path d="M81.1,61.438c-2.127,0-3.858,1.731-3.858,3.859s1.731,3.859,3.858,3.859c2.129,0,3.859-1.731,3.859-3.859  S83.229,61.438,81.1,61.438z M81.1,68.156c-1.576,0-2.858-1.282-2.858-2.859c0-1.576,1.282-2.859,2.858-2.859  c1.577,0,2.859,1.283,2.859,2.859C83.959,66.874,82.677,68.156,81.1,68.156z"/>
<path d="M32.048,27.206C32.047,27.206,32.047,27.206,32.048,27.206c-3.199,0.038-5.773,2.456-5.739,5.39  c0.012,1.188,0.454,2.322,1.252,3.243c-0.397,0.471-0.613,1.066-0.606,1.696c0.012,0.968,0.567,1.803,1.367,2.24l4.052,15.297  l3.714-15.476c0.144-0.098,0.28-0.21,0.405-0.338c0.485-0.497,0.746-1.152,0.737-1.843c-0.005-0.588-0.209-1.148-0.57-1.598  c0.823-0.954,1.263-2.129,1.248-3.358C37.877,29.563,35.281,27.206,32.048,27.206z M32.326,50.986L29.439,40.09  c0.039,0.002,0.075,0.012,0.114,0.012v-0.001h0.029c0.467-0.004,0.911-0.131,1.304-0.368c0.392,0.223,0.833,0.339,1.311,0.339  c0.434-0.005,0.853-0.118,1.229-0.328c0.373,0.196,0.79,0.299,1.237,0.299c0.101-0.001,0.198-0.02,0.297-0.032L32.326,50.986z   M35.62,35.464l-0.402,0.389l0.432,0.356c0.366,0.301,0.578,0.744,0.582,1.217c0.005,0.426-0.156,0.828-0.453,1.134  c-0.299,0.306-0.698,0.477-1.142,0.482c-0.332,0-0.653-0.102-0.926-0.296l-0.296-0.21l-0.292,0.217  c-0.275,0.204-0.598,0.315-0.951,0.319c-0.359,0-0.699-0.117-0.985-0.339l-0.315-0.245l-0.309,0.253  c-0.284,0.232-0.626,0.357-0.99,0.36l-0.02,0.5v-0.5c-0.871,0-1.588-0.708-1.598-1.579c-0.006-0.501,0.22-0.966,0.617-1.277  l0.455-0.356L28.61,35.49c-0.827-0.79-1.289-1.823-1.301-2.906c-0.028-2.382,2.103-4.347,4.813-4.379  c2.613,0,4.76,1.913,4.787,4.265C36.923,33.583,36.465,34.647,35.62,35.464z"/>
</svg>